<svg xmlns="http://www.w3.org/2000/svg" xmlns:xlink="http://www.w3.org/1999/xlink" version="1.1" id="Layer_1" x="0px" y="0px" width="100%" viewBox="0 0 1001 1001" enable-background="new 0 0 1001 1001" xml:space="preserve">
<path fill="#72b3c7" opacity="1.000000" stroke="none" d=" M527.000000,1002.000000   C510.312439,1002.000000 493.624878,1002.000000 476.216278,1001.654846   C465.947906,1000.549194 456.322540,1000.316956 446.869202,998.920227   C426.059387,995.845337 405.115784,993.161743 384.626312,988.545166   C347.892181,980.268616 312.682098,967.225403 278.973938,950.404602   C255.357819,938.619873 232.233643,925.799255 211.314499,909.628906   C192.148071,894.813477 173.316956,879.484558 155.234100,863.375977   C143.761292,853.155701 133.469666,841.485596 123.478943,829.758057   C112.060326,816.354370 101.037209,802.542969 90.776428,788.238647   C70.332687,759.738464 53.161968,729.248718 40.106133,696.691772   C32.159332,676.875000 25.193195,656.588074 19.142435,636.111755   C14.126740,619.138184 10.398333,601.698486 7.390812,584.242798   C4.682437,568.523376 3.741348,552.500366 1.978079,536.615967   C1.805393,535.060303 1.333181,533.537842 0.999998,532.000000   C1.000000,511.645782 1.000000,491.291534 1.344136,470.218567   C2.787276,458.173126 3.425325,446.777985 5.094947,435.536041   C7.508344,419.286072 10.030368,403.002472 13.655257,386.993439   C19.657997,360.482880 28.244373,334.758148 38.587112,309.563385   C51.042221,279.222931 65.999336,250.163666 84.689430,223.357712   C99.739029,201.773071 116.100044,180.902390 133.706543,161.361374   C149.086365,144.291702 166.430557,128.831833 183.967636,113.907173   C205.050797,95.964691 228.141403,80.683723 252.189865,66.830246   C278.146545,51.877506 305.215149,39.422375 333.377106,29.397707   C360.531616,19.731657 388.274933,12.012621 416.873474,7.981026   C434.148682,5.545702 451.545166,3.972738 468.882050,1.967905   C469.944489,1.845047 470.961731,1.331669 472.000000,0.999997   C491.354218,1.000000 510.708466,1.000000 530.782471,1.344690   C540.219910,2.455830 548.992004,2.838870 557.643372,4.070468   C574.408203,6.457086 591.218933,8.756121 607.807373,12.100001   C647.561890,20.113667 685.512024,33.665459 721.879150,51.512543   C745.141296,62.928329 767.361328,76.173546 788.641296,91.032150   C811.051514,106.679939 831.808411,124.273514 851.527649,143.121613   C857.639526,148.963516 863.317444,155.274765 868.999512,161.547302   C876.883545,170.250732 885.249817,178.626816 892.217957,188.026505   C904.860107,205.080200 917.248962,222.388931 928.609253,240.310226   C946.499390,268.532532 960.793823,298.641815 972.078491,330.118103   C981.757446,357.115448 989.957214,384.569580 994.004333,413.016907   C996.903015,433.391937 998.698975,453.923553 1001.027649,474.380646   C1001.167358,475.608093 1001.667542,476.794495 1002.000000,478.000000   C1002.000000,493.354218 1002.000000,508.708466 1001.654846,524.783752   C1000.881042,531.440552 1000.380981,537.372192 1000.036438,543.312805   C998.822754,564.239929 995.321838,584.805786 991.177063,605.339417   C983.377502,643.979248 970.583069,680.888977 953.774109,716.432983   C941.128967,743.172119 926.666992,768.963135 908.751526,792.536255   C895.589783,809.854431 881.506531,826.499512 867.304138,842.988159   C859.978455,851.493103 851.689392,859.207397 843.486633,866.907104   C834.565369,875.281250 825.608215,883.691833 816.013672,891.258484   C795.573792,907.377930 774.319092,922.322937 751.640442,935.274414   C725.919312,949.963562 699.318115,962.695740 671.469727,972.644043   C644.956970,982.115173 617.933655,990.084229 589.970703,994.029358   C570.250183,996.811584 550.403687,998.699524 530.618225,1001.027039   C529.390991,1001.171387 528.205139,1001.667603 527.000000,1002.000000  M252.354080,615.386230   C252.482086,615.693542 252.707596,615.806702 253.960663,615.804016   C402.591492,615.817749 551.222351,615.832458 699.853149,615.832153   C701.452820,615.832153 703.052490,615.633362 704.652527,615.527283   C704.652527,588.235779 704.652527,561.491699 704.652527,534.451965   C553.925049,534.451965 403.544922,534.451965 252.432114,534.451965   C252.432114,561.440430 252.432114,588.210999 252.354080,615.386230  M252.409409,315.484924   C252.409409,319.731598 252.409409,323.978271 252.409409,328.245819   C403.704773,328.245819 554.077820,328.245819 704.563110,328.245819   C704.563110,301.042389 704.563110,274.186584 704.563110,247.320648   C553.764221,247.320648 403.402435,247.320648 252.410233,247.320648   C252.410233,269.920502 252.410233,292.205536 252.409409,315.484924  M715.500000,678.000000   C581.312195,678.000000 447.124359,678.000000 312.762848,678.000000   C312.762848,705.532715 312.762848,732.261902 312.762848,759.184570   C463.608826,759.184570 614.100464,759.184570 764.671448,759.184570   C764.671448,732.034180 764.671448,705.291504 764.671448,678.000000   C748.399353,678.000000 732.449646,678.000000 715.500000,678.000000  M663.500000,472.153900   C697.223267,472.153900 730.946472,472.153900 764.665833,472.153900   C764.665833,444.609955 764.665833,418.028809 764.665833,391.122040   C762.728149,391.019196 761.103394,390.857574 759.478699,390.857452   C612.366455,390.846039 465.254242,390.865540 318.142090,390.757568   C313.753632,390.754364 312.454620,391.986328 312.482330,396.370300   C312.624420,418.859894 312.462952,441.351440 312.409393,463.842285   C312.403229,466.439453 312.408569,469.036591 312.408569,472.154083   C429.327881,472.154083 545.913940,472.154083 663.500000,472.153900  z"/>
<path fill="#ffffff" opacity="1.000000" stroke="none" d=" M527.468628,1002.000000   C528.205139,1001.667603 529.390991,1001.171387 530.618225,1001.027039   C550.403687,998.699524 570.250183,996.811584 589.970703,994.029358   C617.933655,990.084229 644.956970,982.115173 671.469727,972.644043   C699.318115,962.695740 725.919312,949.963562 751.640442,935.274414   C774.319092,922.322937 795.573792,907.377930 816.013672,891.258484   C825.608215,883.691833 834.565369,875.281250 843.486633,866.907104   C851.689392,859.207397 859.978455,851.493103 867.304138,842.988159   C881.506531,826.499512 895.589783,809.854431 908.751526,792.536255   C926.666992,768.963135 941.128967,743.172119 953.774109,716.432983   C970.583069,680.888977 983.377502,643.979248 991.177063,605.339417   C995.321838,584.805786 998.822754,564.239929 1000.036438,543.312805   C1000.380981,537.372192 1000.881042,531.440552 1001.654846,525.252441   C1002.000000,683.926941 1002.000000,842.853821 1002.000000,1002.000000   C843.979187,1002.000000 685.958252,1002.000000 527.468628,1002.000000  z"/>
<path fill="#ffffff" opacity="1.000000" stroke="none" d=" M1002.000000,477.531342   C1001.667542,476.794495 1001.167358,475.608093 1001.027649,474.380646   C998.698975,453.923553 996.903015,433.391937 994.004333,413.016907   C989.957214,384.569580 981.757446,357.115448 972.078491,330.118103   C960.793823,298.641815 946.499390,268.532532 928.609253,240.310226   C917.248962,222.388931 904.860107,205.080200 892.217957,188.026505   C885.249817,178.626816 876.883545,170.250732 868.999512,161.547302   C863.317444,155.274765 857.639526,148.963516 851.527649,143.121613   C831.808411,124.273514 811.051514,106.679939 788.641296,91.032150   C767.361328,76.173546 745.141296,62.928329 721.879150,51.512543   C685.512024,33.665459 647.561890,20.113667 607.807373,12.100001   C591.218933,8.756121 574.408203,6.457086 557.643372,4.070468   C548.992004,2.838870 540.219910,2.455830 531.251160,1.344690   C687.927551,1.000000 844.855042,1.000000 1002.000000,1.000000   C1002.000000,159.687500 1002.000000,318.375092 1002.000000,477.531342  z"/>
<path fill="#ffffff" opacity="1.000000" stroke="none" d=" M0.999998,532.468628   C1.333181,533.537842 1.805393,535.060303 1.978079,536.615967   C3.741348,552.500366 4.682437,568.523376 7.390812,584.242798   C10.398333,601.698486 14.126740,619.138184 19.142435,636.111755   C25.193195,656.588074 32.159332,676.875000 40.106133,696.691772   C53.161968,729.248718 70.332687,759.738464 90.776428,788.238647   C101.037209,802.542969 112.060326,816.354370 123.478943,829.758057   C133.469666,841.485596 143.761292,853.155701 155.234100,863.375977   C173.316956,879.484558 192.148071,894.813477 211.314499,909.628906   C232.233643,925.799255 255.357819,938.619873 278.973938,950.404602   C312.682098,967.225403 347.892181,980.268616 384.626312,988.545166   C405.115784,993.161743 426.059387,995.845337 446.869202,998.920227   C456.322540,1000.316956 465.947906,1000.549194 475.747620,1001.654846   C317.739960,1002.000000 159.479935,1002.000000 1.000000,1002.000000   C1.000000,845.645813 1.000000,689.291565 0.999998,532.468628  z"/>
<path fill="#ffffff" opacity="1.000000" stroke="none" d=" M471.531342,0.999997   C470.961731,1.331669 469.944489,1.845047 468.882050,1.967905   C451.545166,3.972738 434.148682,5.545702 416.873474,7.981026   C388.274933,12.012621 360.531616,19.731657 333.377106,29.397707   C305.215149,39.422375 278.146545,51.877506 252.189865,66.830246   C228.141403,80.683723 205.050797,95.964691 183.967636,113.907173   C166.430557,128.831833 149.086365,144.291702 133.706543,161.361374   C116.100044,180.902390 99.739029,201.773071 84.689430,223.357712   C65.999336,250.163666 51.042221,279.222931 38.587112,309.563385   C28.244373,334.758148 19.657997,360.482880 13.655257,386.993439   C10.030368,403.002472 7.508344,419.286072 5.094947,435.536041   C3.425325,446.777985 2.787276,458.173126 1.344136,469.749908   C1.000000,313.739410 1.000000,157.478851 1.000000,1.000000   C157.687500,1.000000 314.375092,1.000000 471.531342,0.999997  z"/>
<path fill="#ffffff" opacity="1.000000" stroke="none" d=" M252.409821,314.987762   C252.410233,292.205536 252.410233,269.920502 252.410233,247.320648   C403.402435,247.320648 553.764221,247.320648 704.563110,247.320648   C704.563110,274.186584 704.563110,301.042389 704.563110,328.245819   C554.077820,328.245819 403.704773,328.245819 252.409409,328.245819   C252.409409,323.978271 252.409409,319.731598 252.409821,314.987762  z"/>
<path fill="#ffffff" opacity="1.000000" stroke="none" d=" M716.000000,678.000000   C732.449646,678.000000 748.399353,678.000000 764.671448,678.000000   C764.671448,705.291504 764.671448,732.034180 764.671448,759.184570   C614.100464,759.184570 463.608826,759.184570 312.762848,759.184570   C312.762848,732.261902 312.762848,705.532715 312.762848,678.000000   C447.124359,678.000000 581.312195,678.000000 716.000000,678.000000  z"/>
<path fill="#ffffff" opacity="1.000000" stroke="none" d=" M252.432114,614.981506   C252.432114,588.210999 252.432114,561.440430 252.432114,534.451965   C403.544922,534.451965 553.925049,534.451965 704.652527,534.451965   C704.652527,561.491699 704.652527,588.235779 704.652527,615.527283   C703.052490,615.633362 701.452820,615.832153 699.853149,615.832153   C551.222351,615.832458 402.591492,615.817749 253.416626,615.624878   C252.757294,615.261108 252.610458,615.106384 252.432114,614.981506  z"/>
<path fill="#ffffff" opacity="1.000000" stroke="none" d=" M663.000000,472.153992   C545.913940,472.154083 429.327881,472.154083 312.408569,472.154083   C312.408569,469.036591 312.403229,466.439453 312.409393,463.842285   C312.462952,441.351440 312.624420,418.859894 312.482330,396.370300   C312.454620,391.986328 313.753632,390.754364 318.142090,390.757568   C465.254242,390.865540 612.366455,390.846039 759.478699,390.857452   C761.103394,390.857574 762.728149,391.019196 764.665833,391.122040   C764.665833,418.028809 764.665833,444.609955 764.665833,472.153900   C730.946472,472.153900 697.223267,472.153900 663.000000,472.153992  z"/>
<path fill="#ffffff" opacity="1.000000" stroke="none" d=" M252.393097,615.183838   C252.610458,615.106384 252.757294,615.261108 252.951599,615.585754   C252.707596,615.806702 252.482086,615.693542 252.393097,615.183838  z"/>
</svg>